<svg xmlns="http://www.w3.org/2000/svg" version="1.1" xmlns:xlink="http://www.w3.org/1999/xlink" width="212px" height="212px"><svg xmlns="http://www.w3.org/2000/svg" version="1.1" xmlns:xlink="http://www.w3.org/1999/xlink" width="212px" height="212px"><svg width="212px" height="212px" viewBox="-8.96 -8.96 81.92 81.92" xmlns="http://www.w3.org/2000/svg" xmlns:xlink="http://www.w3.org/1999/xlink" aria-hidden="true" role="img" class="iconify iconify--emojione" preserveAspectRatio="xMidYMid meet" fill="#000000" transform="matrix(1, 0, 0, 1, 0, 0)rotate(0)" stroke="#000000" stroke-width="0.00064"><g id="SVGRepo_bgCarrier" stroke-width="0" transform="translate(0,0), scale(1)"><path transform="translate(-8.96, -8.96), scale(5.12)" fill="#E0E0E0" d="M9.166.33a2.25 2.25 0 00-2.332 0l-5.25 3.182A2.25 2.25 0 00.5 5.436v5.128a2.25 2.25 0 001.084 1.924l5.25 3.182a2.25 2.25 0 002.332 0l5.25-3.182a2.25 2.25 0 001.084-1.924V5.436a2.25 2.25 0 00-1.084-1.924L9.166.33z" strokewidth="0"></path></g><g id="SVGRepo_tracerCarrier" stroke-linecap="round" stroke-linejoin="round" stroke="#ffffff" stroke-width="4.864"><circle cx="32" cy="32" r="30" fill="#004B97"></circle><path d="M28.6 35.2v.7c0 2.2.3 3.8.7 4.7c.4.9 1.3 1.4 2.7 1.4c1.3 0 2.2-.5 2.7-1.5c.3-.6.4-1.6.4-3V17.1h6.1v20.2c0 2.5-.4 4.4-1.3 5.9c-1.4 2.4-4 3.7-7.6 3.7s-6.2-1-7.4-3c-1.3-2-1.9-4.7-1.9-8.1v-.7h5.6z" fill="#ffffff"></path></g><g id="SVGRepo_iconCarrier"><circle cx="32" cy="32" r="30" fill="#004B97"></circle><path d="M28.6 35.2v.7c0 2.2.3 3.8.7 4.7c.4.9 1.3 1.4 2.7 1.4c1.3 0 2.2-.5 2.7-1.5c.3-.6.4-1.6.4-3V17.1h6.1v20.2c0 2.5-.4 4.4-1.3 5.9c-1.4 2.4-4 3.7-7.6 3.7s-6.2-1-7.4-3c-1.3-2-1.9-4.7-1.9-8.1v-.7h5.6z" fill="#ffffff"></path></g></svg></svg><style>@media (prefers-color-scheme: light) { :root { filter: none; } }
@media (prefers-color-scheme: dark) { :root { filter: none; } }
</style></svg>